<svg width="29" height="24" viewBox="0 0 29 24" fill="none" xmlns="http://www.w3.org/2000/svg">
<path d="M14.4989 0C15.3033 0 16.0453 0.401786 16.4532 1.06071L28.6884 20.775C29.1019 21.4393 29.1019 22.2589 28.6998 22.9232C28.2976 23.5875 27.5442 24 26.7342 24H2.2637C1.45368 24 0.700303 23.5875 0.298126 22.9232C-0.104051 22.2589 -0.0983867 21.4339 0.309455 20.775L12.5447 1.06071C12.9525 0.401786 13.6946 0 14.4989 0ZM14.4989 6.85714C13.7456 6.85714 13.1395 7.43036 13.1395 8.14286V14.1429C13.1395 14.8554 13.7456 15.4286 14.4989 15.4286C15.2523 15.4286 15.8584 14.8554 15.8584 14.1429V8.14286C15.8584 7.43036 15.2523 6.85714 14.4989 6.85714ZM16.3116 18.8571C16.3116 18.4025 16.1206 17.9665 15.7807 17.645C15.4407 17.3235 14.9797 17.1429 14.4989 17.1429C14.0182 17.1429 13.5572 17.3235 13.2172 17.645C12.8773 17.9665 12.6863 18.4025 12.6863 18.8571C12.6863 19.3118 12.8773 19.7478 13.2172 20.0693C13.5572 20.3908 14.0182 20.5714 14.4989 20.5714C14.9797 20.5714 15.4407 20.3908 15.7807 20.0693C16.1206 19.7478 16.3116 19.3118 16.3116 18.8571Z" fill="black"/>
</svg>
