<svg width="29" height="24" viewBox="0 0 29 24" fill="none" xmlns="http://www.w3.org/2000/svg">
<path d="M17.7512 23.9496C19.2238 23.6711 20.1811 22.3159 19.8865 20.9231L19.7562 20.3125C19.4561 18.8822 18.901 17.5216 18.125 16.2843H26.2812C27.7822 16.2843 29 15.1326 29 13.7131C29 12.7221 28.4053 11.8597 27.533 11.4311C28.1504 10.9597 28.5469 10.2366 28.5469 9.42773C28.5469 8.17427 27.5953 7.12972 26.3436 6.90474C26.5928 6.5137 26.7344 6.05839 26.7344 5.57093C26.7344 4.42996 25.9471 3.46041 24.8596 3.12829C24.8992 2.95152 24.9219 2.76404 24.9219 2.5712C24.9219 1.15168 23.7041 0 22.2031 0H16.6807C15.6045 0 14.5566 0.299973 13.6617 0.862423L11.4811 2.23909C9.96875 3.19257 9.0625 4.79957 9.0625 6.51906V8.57066V11.1419V12.4757C9.0625 14.0398 9.81582 15.5129 11.1016 16.4932L11.5207 16.8092C13.0217 17.9448 14.0469 19.5411 14.4207 21.3195L14.551 21.9302C14.8455 23.3229 16.2785 24.2282 17.7512 23.9496ZM1.8125 18.8555H5.4375C6.44004 18.8555 7.25 18.0895 7.25 17.1413V5.1424C7.25 4.19427 6.44004 3.42827 5.4375 3.42827H1.8125C0.809961 3.42827 0 4.19427 0 5.1424V17.1413C0 18.0895 0.809961 18.8555 1.8125 18.8555Z" fill="#59CBE8"/>
</svg>
