<svg width="29" height="24" viewBox="0 0 29 24" fill="none" xmlns="http://www.w3.org/2000/svg">
<path d="M17.7512 0.0503525C19.2238 0.328899 20.1811 1.68414 19.8865 3.07687L19.7562 3.68753C19.4561 5.11776 18.901 6.47835 18.125 7.71574H26.2812C27.7822 7.71574 29 8.86742 29 10.2869C29 11.2779 28.4053 12.1403 27.533 12.5689C28.1504 13.0403 28.5469 13.7634 28.5469 14.5723C28.5469 15.8257 27.5953 16.8703 26.3436 17.0953C26.5928 17.4863 26.7344 17.9416 26.7344 18.4291C26.7344 19.57 25.9471 20.5396 24.8596 20.8717C24.8992 21.0485 24.9219 21.236 24.9219 21.4288C24.9219 22.8483 23.7041 24 22.2031 24H16.6807C15.6045 24 14.5566 23.7 13.6617 23.1376L11.4811 21.7609C9.96875 20.8074 9.0625 19.2004 9.0625 17.4809V15.4293V12.8581V11.5243C9.0625 9.96018 9.81582 8.4871 11.1016 7.50683L11.5207 7.19079C13.0217 6.05517 14.0469 4.45889 14.4207 2.68047L14.551 2.06981C14.8455 0.677082 16.2785 -0.228194 17.7512 0.0503525ZM1.8125 8.57281H5.4375C6.44004 8.57281 7.25 9.33881 7.25 10.2869V22.2859C7.25 23.234 6.44004 24 5.4375 24H1.8125C0.809961 24 0 23.234 0 22.2859V10.2869C0 9.33881 0.809961 8.57281 1.8125 8.57281Z" fill="black"/>
</svg>
